<?xml version="1.0" encoding="UTF-8"?>
<svg width="207px" height="42px" viewBox="0 0 207 42" version="1.1" xmlns="http://www.w3.org/2000/svg" xmlns:xlink="http://www.w3.org/1999/xlink">
    <!-- Generator: Sketch 46.2 (44496) - http://www.bohemiancoding.com/sketch -->
    <title>Logo CMC GLOBAL</title>
    <desc>Created with Sketch.</desc>
    <defs></defs>
    <g id="Symbols" stroke="none" stroke-width="1" fill="none" fill-rule="evenodd">
        <g id="logo" transform="translate(-4.000000, -4.000000)" fill="#1C9AD6">
            <g id="Logo-CMC-GLOBAL" transform="translate(4.000000, 4.000000)">
                <path d="M18.3899795,34.964868 L18.3899795,24.7948153 L23.094961,31.5570037 L23.094961,36.5340132 C23.0889477,36.6047764 23.0750421,36.8110754 23.0663981,36.8792177 C23.0570024,36.9608387 23.044976,37.0387156 23.0321978,37.1162181 C23.0235538,37.1648912 23.0156614,37.2154363 23.0055141,37.2629862 C22.9998767,37.2899436 22.9964942,37.3206451 22.9901052,37.347228 C22.9886019,37.353593 22.9870986,37.3595835 22.9855952,37.3663229 C22.9232079,37.6205461 22.8412776,37.8421958 22.751079,38.0387602 C22.7386767,38.066092 22.6229219,38.264154 22.5688028,38.3517655 C22.5680512,38.3525143 22.4797318,38.490671 22.4797318,38.490671 C22.3132403,38.7583729 22.1817007,38.878558 22.0644426,39.0077289 C20.1676424,40.6686041 16.998667,42 13.6098326,42 C6.09328737,42 0,35.9300926 0,28.4419266 C0,20.9537606 6.09328737,14.88273 13.6098326,14.88273 C14.4389075,14.88273 15.2488153,14.9617301 16.0373009,15.1036309 L16.0373009,19.9443558 C15.2649758,19.7257013 14.4520615,19.6051419 13.6098326,19.6051419 C8.71092424,19.6051419 4.73955758,23.56114 4.73955758,28.4419266 C4.73955758,33.32159 8.71092424,37.2783369 13.6098326,37.2783369 C15.0116683,37.2783369 16.3327011,36.9462368 17.5101679,36.3674015 C17.881861,36.1352684 18.3260889,35.7046988 18.3899795,34.964868 Z M45.6100205,15.7322624 L45.6100205,20.6883051 L32.0001879,40.2043378 L18.3899795,20.6883051 L18.3899795,15.7322624 C19.3411983,16.1044243 21.5769947,17.1722367 23.3351146,19.5246441 C23.3392487,19.5209 23.3437586,19.5175303 23.3482686,19.5137862 L32.0001879,31.9190565 L40.6517314,19.5137862 C40.6562414,19.5175303 40.6603755,19.5209 40.6648854,19.5246441 C42.4230053,17.1722367 44.6588017,16.1044243 45.6100205,15.7322624 Z M50.3901674,14.88273 C57.9067126,14.88273 64,20.9537606 64,28.4419266 C64,35.9300926 57.9067126,42 50.3901674,42 C47.001333,42 43.8323576,40.6686041 41.9355574,39.0077289 C41.8182993,38.878558 41.6867597,38.7583729 41.5202682,38.490671 C41.5202682,38.490671 41.4319488,38.3525143 41.4311972,38.3517655 C41.3770781,38.264154 41.2609474,38.066092 41.2485451,38.0387602 C41.1583466,37.8421958 41.0767921,37.6205461 41.0144048,37.3663229 C41.0129014,37.3595835 41.0113981,37.353593 41.0098948,37.347228 C41.0035058,37.3206451 40.9997475,37.2899436 40.9944859,37.2629862 C40.9843386,37.2154363 40.9760704,37.1648912 40.9674263,37.1162181 C40.955024,37.0387156 40.9429976,36.9608387 40.9336019,36.8792177 C40.9249579,36.8110754 40.9106764,36.6047764 40.905039,36.5340132 L40.905039,31.5570037 L45.6100205,24.7948153 L45.6100205,34.964868 C45.6739111,35.7046988 46.118139,36.1352684 46.4894563,36.3674015 C47.6669231,36.9462368 48.9883317,37.2783369 50.3901674,37.2783369 C55.2890758,37.2783369 59.2604424,33.32159 59.2604424,28.4419266 C59.2604424,23.56114 55.2890758,19.6051419 50.3901674,19.6051419 C49.5475627,19.6051419 48.7350242,19.7257013 47.9626991,19.9443558 L47.9626991,15.1036309 C48.7511847,14.9617301 49.5607167,14.88273 50.3901674,14.88273 Z M23.351651,15.4346078 C21.8934412,14.3742835 20.2161242,13.5977607 18.3993752,13.1817931 C18.6004428,5.86847571 24.6102965,0 32.0001879,0 C39.3893277,0 45.3995572,5.86847571 45.6006248,13.1817931 C43.7838758,13.5977607 42.1065588,14.3742835 40.6487248,15.4346078 C40.7802644,14.8299384 40.8512957,14.2024301 40.8512957,13.5591966 C40.8512957,8.68889345 36.8881973,4.74075791 32.0001879,4.74075791 C27.1118027,4.74075791 23.1487043,8.68889345 23.1487043,13.5591966 C23.1487043,14.2024301 23.2197356,14.8299384 23.351651,15.4346078 Z" id="Combined-Shape"></path>
                <path d="M77.9843875,28 C80.5544852,28 82.1240104,27.0718232 83.5562023,25.6022099 L82.006296,24.0552486 C80.8291521,25.1381215 79.7501034,25.8149171 78.0628638,25.8149171 C75.4339089,25.8149171 73.5308595,23.6491713 73.5308595,21 L73.5308595,20.961326 C73.5308595,18.3121547 75.4339089,16.1850829 78.0628638,16.1850829 C79.6323891,16.1850829 80.809533,16.8618785 81.9082007,17.8674033 L83.4581069,16.1077348 C82.1436295,14.8701657 80.6133424,14 78.0824828,14 C73.9232408,14 71,17.1519337 71,21 L71,21.038674 C71,24.9254144 73.982098,28 77.9843875,28 Z M86.0893121,27.7679558 L88.4632191,27.7679558 L88.4632191,18.0994475 L92.7597946,24.441989 L92.8382709,24.441989 L97.1740845,18.0607735 L97.1740845,27.7679558 L99.5872296,27.7679558 L99.5872296,14.2320442 L97.0171319,14.2320442 L92.8382709,20.6325967 L88.6594098,14.2320442 L86.0893121,14.2320442 L86.0893121,27.7679558 Z M109.497108,28 C112.067206,28 113.636731,27.0718232 115.068923,25.6022099 L113.519017,24.0552486 C112.341873,25.1381215 111.262824,25.8149171 109.575585,25.8149171 C106.94663,25.8149171 105.04358,23.6491713 105.04358,21 L105.04358,20.961326 C105.04358,18.3121547 106.94663,16.1850829 109.575585,16.1850829 C111.14511,16.1850829 112.322254,16.8618785 113.420921,17.8674033 L114.970828,16.1077348 C113.65635,14.8701657 112.126063,14 109.595204,14 C105.435962,14 102.512721,17.1519337 102.512721,21 L102.512721,21.038674 C102.512721,24.9254144 105.494819,28 109.497108,28 Z M130.003533,28 C132.436297,28 134.378585,27.0331492 135.7323,25.8922652 L135.7323,20.2071823 L129.885819,20.2071823 L129.885819,22.2762431 L133.397631,22.2762431 L133.397631,24.8093923 C132.554012,25.4281768 131.376868,25.8342541 130.082009,25.8342541 C127.276483,25.8342541 125.412672,23.7845304 125.412672,21 L125.412672,20.961326 C125.412672,18.3701657 127.33534,16.1850829 129.8662,16.1850829 C131.612296,16.1850829 132.652107,16.7458564 133.711537,17.6353591 L135.241824,15.8370166 C133.829251,14.6574586 132.357821,14 129.964295,14 C125.824672,14 122.881812,17.2099448 122.881812,21 L122.881812,21.038674 C122.881812,24.9834254 125.706958,28 130.003533,28 Z M138.873601,27.7679558 L148.506563,27.7679558 L148.506563,25.6022099 L141.286746,25.6022099 L141.286746,14.2320442 L138.873601,14.2320442 L138.873601,27.7679558 Z M157.572822,28 C153.354722,28 150.411862,24.8480663 150.411862,21.038674 L150.411862,21 C150.411862,17.1906077 153.39396,14 157.61206,14 C161.830159,14 164.773019,17.1519337 164.773019,20.961326 L164.773019,21 C164.773019,24.8093923 161.790921,28 157.572822,28 Z M157.61206,25.8149171 C160.33911,25.8149171 162.242159,23.6685083 162.242159,21.038674 L162.242159,21 C162.242159,18.3701657 160.299872,16.1850829 157.572822,16.1850829 C154.845771,16.1850829 152.942722,18.3314917 152.942722,20.961326 L152.942722,21 C152.942722,23.6298343 154.88501,25.8149171 157.61206,25.8149171 Z M167.69851,27.7679558 L167.69851,14.2320442 L173.858897,14.2320442 C175.428422,14.2320442 176.664423,14.6574586 177.449186,15.4309392 C178.057377,16.0303867 178.371282,16.7651934 178.371282,17.6740331 L178.371282,17.7127072 C178.371282,19.3370166 177.429567,20.2071823 176.409375,20.7292818 C178.018139,21.2707182 179.136425,22.179558 179.136425,24.0165746 L179.136425,24.0552486 C179.136425,26.4723757 177.115662,27.7679558 174.055087,27.7679558 L167.69851,27.7679558 Z M170.072417,19.9364641 L173.36842,19.9364641 C174.918326,19.9364641 175.958137,19.3370166 175.958137,18.0994475 L175.958137,18.0607735 C175.958137,16.9972376 175.094898,16.339779 173.544992,16.339779 L170.072417,16.339779 L170.072417,19.9364641 Z M170.072417,25.660221 L174.074706,25.660221 C175.722708,25.660221 176.72328,25.0220994 176.72328,23.8038674 L176.72328,23.7651934 C176.72328,22.6243094 175.801184,21.9475138 173.898135,21.9475138 L170.072417,21.9475138 L170.072417,25.660221 Z M180.688582,27.7679558 L186.731254,14.1353591 L188.967828,14.1353591 L195.0105,27.7679558 L192.460022,27.7679558 L191.067068,24.5 L184.573157,24.5 L183.160584,27.7679558 L180.688582,27.7679558 Z M185.456015,22.3922652 L190.18421,22.3922652 L187.810303,16.9779006 L185.456015,22.3922652 Z M197.367039,27.7679558 L207,27.7679558 L207,25.6022099 L199.780184,25.6022099 L199.780184,14.2320442 L197.367039,14.2320442 L197.367039,27.7679558 Z" id="CMC-GLOBAL"></path>
                <path d="M73.1641449,40.5567929 L74.3729465,40.5567929 L74.3729465,35.3363029 L76.5370914,35.3363029 L76.5370914,34.3207127 L71,34.3207127 L71,35.3363029 L73.1641449,35.3363029 L73.1641449,40.5567929 Z M80.1170076,40.6636971 C78.5475151,40.6636971 77.3874555,39.5679287 77.3874555,38.2316258 L77.3874555,38.2138085 C77.3874555,36.8685969 78.5572635,35.7550111 80.1365044,35.7550111 C81.7157452,35.7550111 82.8758049,36.8507795 82.8758049,38.1959911 L82.8758049,38.2138085 C82.8758049,39.5501114 81.7059968,40.6636971 80.1170076,40.6636971 Z M80.1365044,39.7282851 C81.0918476,39.7282851 81.6962484,39.0423163 81.6962484,38.2316258 L81.6962484,38.2138085 C81.6962484,37.3853007 81.0431056,36.6993318 80.1170076,36.6993318 C79.1714127,36.6993318 78.5670119,37.376392 78.5670119,38.1959911 L78.5670119,38.2138085 C78.5670119,39.0334076 79.2201547,39.7282851 80.1365044,39.7282851 Z M85.3151582,40.5924276 L86.3679854,40.5924276 L87.5280451,37.376392 L88.6783563,40.5924276 L89.7311836,40.5924276 L91.4176569,35.8530067 L90.2381004,35.8530067 L89.1852732,39.077951 L88.0349619,35.8351893 L87.0308767,35.8351893 L85.8903138,39.077951 L84.8569834,35.8530067 L83.6481817,35.8530067 L85.3151582,40.5924276 Z M96.7912787,40.5567929 L95.6214706,40.5567929 L95.6214706,39.9777283 C95.2705282,40.3608018 94.7343662,40.6547884 93.9544942,40.6547884 C92.9796541,40.6547884 92.1217949,40.1469933 92.1217949,39.2026726 L92.1217949,39.1848552 C92.1217949,38.142539 93.0088993,37.6436526 94.2079526,37.6436526 C94.8318502,37.6436526 95.2315346,37.7238307 95.631219,37.8396437 L95.631219,37.7505568 C95.631219,37.1002227 95.1827926,36.7438753 94.363927,36.7438753 C93.7887713,36.7438753 93.3598417,36.8596882 92.8919185,37.0378619 L92.5702213,36.1737194 C93.1356285,35.9420935 93.6912873,35.7817372 94.5296498,35.7817372 C96.0504002,35.7817372 96.7912787,36.5122494 96.7912787,37.7683742 L96.7912787,40.5567929 Z M95.6507158,38.8552339 L95.6507158,38.5879733 C95.3485154,38.481069 94.9293342,38.4008909 94.4711594,38.4008909 C93.7302809,38.4008909 93.2916029,38.6770601 93.2916029,39.1314031 L93.2916029,39.1492205 C93.2916029,39.5946548 93.7302809,39.844098 94.2859398,39.844098 C95.0658118,39.844098 95.6507158,39.4432071 95.6507158,38.8552339 Z M98.1973015,40.5567929 L99.376858,40.5567929 L99.376858,38.766147 C99.376858,37.518931 100.09824,36.9042316 101.13157,36.9042316 L101.199809,36.9042316 L101.199809,35.7639198 C100.293208,35.7282851 99.6985552,36.2093541 99.376858,36.9131403 L99.376858,35.8530067 L98.1973015,35.8530067 L98.1973015,40.5567929 Z M104.350795,40.6547884 C103.141994,40.6547884 101.962437,39.7728285 101.962437,38.2138085 L101.962437,38.1959911 C101.962437,36.636971 103.122497,35.7550111 104.350795,35.7550111 C105.198906,35.7550111 105.735068,36.1469933 106.105507,36.5835189 L106.105507,34.0534521 L107.285064,34.0534521 L107.285064,40.5567929 L106.105507,40.5567929 L106.105507,39.7728285 C105.72532,40.2628062 105.189158,40.6547884 104.350795,40.6547884 Z M104.633499,39.7193764 C105.423119,39.7193764 106.125004,39.1135857 106.125004,38.2138085 L106.125004,38.1959911 C106.125004,37.2873051 105.423119,36.6904232 104.633499,36.6904232 C103.824382,36.6904232 103.151742,37.2605791 103.151742,38.1959911 L103.151742,38.2138085 C103.151742,39.1224944 103.83413,39.7193764 104.633499,39.7193764 Z M110.523786,40.6458797 C111.59611,40.6458797 112.434473,40.155902 112.434473,39.1670379 L112.434473,39.1492205 C112.434473,38.3028953 111.586362,37.9910913 110.835735,37.7772829 C110.231334,37.5991091 109.675675,37.4565702 109.675675,37.1180401 L109.675675,37.1002227 C109.675675,36.8240535 109.938882,36.6280624 110.397057,36.6280624 C110.825986,36.6280624 111.3524,36.7973274 111.849568,37.0734967 L112.317492,36.3073497 C111.771581,35.9777283 111.069696,35.7728285 110.426302,35.7728285 C109.40272,35.7728285 108.593603,36.3162584 108.593603,37.2071269 L108.593603,37.2249443 C108.593603,38.1247216 109.441714,38.4097996 110.202089,38.6057906 C110.80649,38.7750557 111.3524,38.8997773 111.3524,39.2650334 L111.3524,39.2828508 C111.3524,39.5946548 111.059948,39.7906459 110.553031,39.7906459 C110.026618,39.7906459 109.422217,39.5946548 108.866558,39.2115813 L108.340144,39.9420935 C108.983539,40.4053452 109.792656,40.6458797 110.523786,40.6458797 Z M118.288019,40.636971 C118.726697,40.636971 119.058143,40.5478842 119.350595,40.3964365 L119.350595,39.5144766 C119.116633,39.6213808 118.882672,39.674833 118.619465,39.674833 C118.21978,39.674833 117.985819,39.5055679 117.985819,39.0868597 L117.985819,36.77951 L119.370092,36.77951 L119.370092,35.8530067 L117.985819,35.8530067 L117.985819,34.5612472 L116.806262,34.5612472 L116.806262,35.8530067 L116.153119,35.8530067 L116.153119,36.77951 L116.806262,36.77951 L116.806262,39.2561247 C116.806262,40.2895323 117.420412,40.636971 118.288019,40.636971 Z M120.56165,40.5567929 L121.741206,40.5567929 L121.741206,37.9020045 C121.741206,37.1714922 122.218878,36.7349666 122.901266,36.7349666 C123.603151,36.7349666 124.002835,37.1536748 124.002835,37.8841871 L124.002835,40.5567929 L125.182391,40.5567929 L125.182391,37.5634744 C125.182391,36.467706 124.509752,35.7550111 123.349692,35.7550111 C122.550323,35.7550111 122.072652,36.1380846 121.741206,36.5835189 L121.741206,34.0534521 L120.56165,34.0534521 L120.56165,40.5567929 Z M128.967024,40.6636971 C127.475519,40.6636971 126.325207,39.674833 126.325207,38.2227171 L126.325207,38.2048998 C126.325207,36.8596882 127.368286,35.7550111 128.840295,35.7550111 C130.478026,35.7550111 131.30664,36.9309577 131.30664,38.285078 C131.30664,38.3830735 131.296892,38.481069 131.287143,38.5879733 L127.504764,38.5879733 C127.631493,39.3541203 128.226146,39.7817372 128.986521,39.7817372 C129.561676,39.7817372 129.971109,39.5857461 130.380542,39.22049 L131.072678,39.7817372 C130.585258,40.3162584 129.912619,40.6636971 128.967024,40.6636971 Z M127.495016,37.8752784 L130.136832,37.8752784 C130.058845,37.1804009 129.610418,36.636971 128.830546,36.636971 C128.109165,36.636971 127.602248,37.1447661 127.495016,37.8752784 Z M137.550123,40.6547884 C136.341321,40.6547884 135.161765,39.7728285 135.161765,38.2138085 L135.161765,38.1959911 C135.161765,36.636971 136.321824,35.7550111 137.550123,35.7550111 C138.398234,35.7550111 138.934396,36.1469933 139.304835,36.5835189 L139.304835,34.0534521 L140.484391,34.0534521 L140.484391,40.5567929 L139.304835,40.5567929 L139.304835,39.7728285 C138.924647,40.2628062 138.388485,40.6547884 137.550123,40.6547884 Z M137.832826,39.7193764 C138.622447,39.7193764 139.324332,39.1135857 139.324332,38.2138085 L139.324332,38.1959911 C139.324332,37.2873051 138.622447,36.6904232 137.832826,36.6904232 C137.023709,36.6904232 136.351069,37.2605791 136.351069,38.1959911 L136.351069,38.2138085 C136.351069,39.1224944 137.033458,39.7193764 137.832826,39.7193764 Z M141.97815,35.1314031 L143.245442,35.1314031 L143.245442,34.1069042 L141.97815,34.1069042 L141.97815,35.1314031 Z M142.026892,40.5567929 L143.206448,40.5567929 L143.206448,35.8530067 L142.026892,35.8530067 L142.026892,40.5567929 Z M147.039823,42 C146.191712,42 145.402091,41.8040089 144.7392,41.4387528 L145.177878,40.6280624 C145.723789,40.9398664 146.308693,41.1269488 147.010578,41.1269488 C148.063405,41.1269488 148.63856,40.6280624 148.63856,39.6837416 L148.63856,39.3184855 C148.209631,39.8262806 147.673469,40.1826281 146.825358,40.1826281 C145.616556,40.1826281 144.485742,39.363029 144.485742,37.9821826 L144.485742,37.9643653 C144.485742,36.5746102 145.626305,35.7550111 146.825358,35.7550111 C147.692966,35.7550111 148.229128,36.1202673 148.628812,36.5567929 L148.628812,35.8530067 L149.808368,35.8530067 L149.808368,39.5946548 C149.808368,40.3875278 149.584155,40.9755011 149.155226,41.3674833 C148.687302,41.7951002 147.965921,42 147.039823,42 Z M147.137307,39.2739421 C147.956172,39.2739421 148.648309,38.7394209 148.648309,37.9821826 L148.648309,37.9643653 C148.648309,37.1893096 147.956172,36.6636971 147.137307,36.6636971 C146.318441,36.6636971 145.675047,37.1804009 145.675047,37.9554566 L145.675047,37.9732739 C145.675047,38.7483296 146.328189,39.2739421 147.137307,39.2739421 Z M151.302127,35.1314031 L152.569419,35.1314031 L152.569419,34.1069042 L151.302127,34.1069042 L151.302127,35.1314031 Z M151.350869,40.5567929 L152.530425,40.5567929 L152.530425,35.8530067 L151.350869,35.8530067 L151.350869,40.5567929 Z M155.798393,40.636971 C156.237071,40.636971 156.568516,40.5478842 156.860968,40.3964365 L156.860968,39.5144766 C156.627007,39.6213808 156.393045,39.674833 156.129838,39.674833 C155.730154,39.674833 155.496192,39.5055679 155.496192,39.0868597 L155.496192,36.77951 L156.880465,36.77951 L156.880465,35.8530067 L155.496192,35.8530067 L155.496192,34.5612472 L154.316636,34.5612472 L154.316636,35.8530067 L153.663493,35.8530067 L153.663493,36.77951 L154.316636,36.77951 L154.316636,39.2561247 C154.316636,40.2895323 154.930785,40.636971 155.798393,40.636971 Z M162.390565,40.5567929 L161.220756,40.5567929 L161.220756,39.9777283 C160.869814,40.3608018 160.333652,40.6547884 159.55378,40.6547884 C158.57894,40.6547884 157.721081,40.1469933 157.721081,39.2026726 L157.721081,39.1848552 C157.721081,38.142539 158.608185,37.6436526 159.807238,37.6436526 C160.431136,37.6436526 160.83082,37.7238307 161.230505,37.8396437 L161.230505,37.7505568 C161.230505,37.1002227 160.782078,36.7438753 159.963213,36.7438753 C159.388057,36.7438753 158.959128,36.8596882 158.491204,37.0378619 L158.169507,36.1737194 C158.734914,35.9420935 159.290573,35.7817372 160.128936,35.7817372 C161.649686,35.7817372 162.390565,36.5122494 162.390565,37.7683742 L162.390565,40.5567929 Z M161.250002,38.8552339 L161.250002,38.5879733 C160.947801,38.481069 160.52862,38.4008909 160.070445,38.4008909 C159.329567,38.4008909 158.890889,38.6770601 158.890889,39.1314031 L158.890889,39.1492205 C158.890889,39.5946548 159.329567,39.844098 159.885226,39.844098 C160.665098,39.844098 161.250002,39.4432071 161.250002,38.8552339 Z M163.864826,40.5567929 L165.044383,40.5567929 L165.044383,34.0534521 L163.864826,34.0534521 L163.864826,40.5567929 Z M169.776863,40.5567929 L170.95642,40.5567929 L170.95642,36.77951 L172.301699,36.77951 L172.301699,35.8886414 L170.936923,35.8886414 L170.936923,35.6302895 C170.936923,35.1403118 171.170884,34.9175947 171.619311,34.9175947 C171.872769,34.9175947 172.077486,34.9621381 172.311447,35.0334076 L172.311447,34.1247216 C172.048241,34.0534521 171.765537,34 171.356104,34 C170.849187,34 170.469,34.1247216 170.196044,34.3741648 C169.923089,34.623608 169.776863,35.0155902 169.776863,35.5412027 L169.776863,35.8797327 L169.12372,35.8797327 L169.12372,36.77951 L169.776863,36.77951 L169.776863,40.5567929 Z M174.955517,40.6547884 C175.754886,40.6547884 176.232558,40.2717149 176.564003,39.8262806 L176.564003,40.5567929 L177.74356,40.5567929 L177.74356,35.8530067 L176.564003,35.8530067 L176.564003,38.5077951 C176.564003,39.2383073 176.086332,39.674833 175.403943,39.674833 C174.702059,39.674833 174.302374,39.2561247 174.302374,38.5256125 L174.302374,35.8530067 L173.122818,35.8530067 L173.122818,38.8463252 C173.122818,39.9420935 173.795457,40.6547884 174.955517,40.6547884 Z M180.953036,40.636971 C181.391715,40.636971 181.72316,40.5478842 182.015612,40.3964365 L182.015612,39.5144766 C181.781651,39.6213808 181.547689,39.674833 181.284482,39.674833 C180.884798,39.674833 180.650836,39.5055679 180.650836,39.0868597 L180.650836,36.77951 L182.035109,36.77951 L182.035109,35.8530067 L180.650836,35.8530067 L180.650836,34.5612472 L179.47128,34.5612472 L179.47128,35.8530067 L178.818137,35.8530067 L178.818137,36.77951 L179.47128,36.77951 L179.47128,39.2561247 C179.47128,40.2895323 180.085429,40.636971 180.953036,40.636971 Z M185.000876,40.6547884 C185.800245,40.6547884 186.277916,40.2717149 186.609362,39.8262806 L186.609362,40.5567929 L187.788918,40.5567929 L187.788918,35.8530067 L186.609362,35.8530067 L186.609362,38.5077951 C186.609362,39.2383073 186.13169,39.674833 185.449302,39.674833 C184.747417,39.674833 184.347733,39.2561247 184.347733,38.5256125 L184.347733,35.8530067 L183.168177,35.8530067 L183.168177,38.8463252 C183.168177,39.9420935 183.840816,40.6547884 185.000876,40.6547884 Z M189.272928,40.5567929 L190.452485,40.5567929 L190.452485,38.766147 C190.452485,37.518931 191.173867,36.9042316 192.207197,36.9042316 L192.275436,36.9042316 L192.275436,35.7639198 C191.368835,35.7282851 190.774182,36.2093541 190.452485,36.9131403 L190.452485,35.8530067 L189.272928,35.8530067 L189.272928,40.5567929 Z M195.660384,40.6636971 C194.168879,40.6636971 193.018567,39.674833 193.018567,38.2227171 L193.018567,38.2048998 C193.018567,36.8596882 194.061646,35.7550111 195.533655,35.7550111 C197.171386,35.7550111 198,36.9309577 198,38.285078 C198,38.3830735 197.990252,38.481069 197.980503,38.5879733 L194.198124,38.5879733 C194.324853,39.3541203 194.919505,39.7817372 195.679881,39.7817372 C196.255036,39.7817372 196.664469,39.5857461 197.073902,39.22049 L197.766038,39.7817372 C197.278618,40.3162584 196.605979,40.6636971 195.660384,40.6636971 Z M194.188375,37.8752784 L196.830192,37.8752784 C196.752205,37.1804009 196.303778,36.636971 195.523906,36.636971 C194.802525,36.636971 194.295608,37.1447661 194.188375,37.8752784 Z" id="Towards-the-digital-future"></path>
            </g>
        </g>
    </g>
</svg>